<svg xmlns="http://www.w3.org/2000/svg" viewBox="0 0 64 64">
  <rect width="64" height="64" rx="14" fill="white"/>
  <!-- arcs -->
  <path d="M18 30 C26 18, 40 14, 50 16" fill="none" stroke="#E0C050" stroke-width="6" stroke-linecap="round"/>
  <path d="M18 36 C28 26, 40 24, 48 26" fill="none" stroke="#E0C050" stroke-width="6" stroke-linecap="round" opacity="0.92"/>
  <path d="M18 42 C28 35, 38 34, 45 35" fill="none" stroke="#E0C050" stroke-width="6" stroke-linecap="round" opacity="0.85"/>
  <circle cx="18" cy="26" r="4.5" fill="#E0C050"/>
  <!-- INAN simplified -->
  <path d="M14 54 V46 h4 v8z" fill="#405080"/>
  <path d="M22 54 V46 h2 l4 5 v-5 h4 v8 h-2l-4-5v5z" fill="#405080"/>
  <path d="M36 54 V46 h4 v8z" fill="#405080"/>
  <path d="M44 54 V46 h2 l4 5 v-5 h4 v8 h-2l-4-5v5z" fill="#405080"/>
</svg>
