<?xml version="1.0" standalone="no"?>
<!DOCTYPE svg PUBLIC "-//W3C//DTD SVG 20010904//EN"
 "http://www.w3.org/TR/2001/REC-SVG-20010904/DTD/svg10.dtd">
<svg version="1.0" xmlns="http://www.w3.org/2000/svg"
 width="960.000000pt" height="960.000000pt" viewBox="0 0 960.000000 960.000000"
 preserveAspectRatio="xMidYMid meet">

<g transform="translate(0.000000,960.000000) scale(0.100000,-0.100000)"
fill="#000000" stroke="none">
<path d="M2340 4258 c-74 -37 -163 -137 -390 -438 -486 -647 -938 -1237 -1177
-1537 -62 -79 -113 -150 -113 -158 0 -36 85 -171 113 -181 52 -17 244 180 492
504 71 92 90 110 189 176 166 110 366 212 366 188 0 -5 -88 -252 -195 -550
-107 -297 -195 -555 -195 -572 0 -36 26 -86 49 -95 36 -14 31 -24 342 809
l164 438 72 -6 c75 -6 168 -35 203 -64 20 -17 20 -17 -25 -107 -42 -83 -95
-257 -95 -310 0 -12 6 -27 13 -33 20 -17 188 -32 238 -21 54 13 77 34 142 129
81 120 259 286 251 234 -1 -5 -5 -51 -9 -102 l-7 -92 44 -44 c52 -53 96 -64
173 -47 30 7 80 29 113 51 l60 38 6 -36 c14 -87 55 -110 213 -118 138 -7 244
11 305 51 46 31 48 31 48 2 0 -44 20 -57 92 -60 l67 -2 103 101 c111 108 218
196 335 276 41 27 72 55 70 61 -2 7 -18 13 -36 15 -53 5 -295 -133 -417 -239
l-48 -41 -33 40 c-47 56 -79 61 -151 24 -31 -16 -95 -42 -141 -56 -89 -28
-111 -25 -111 18 0 57 102 206 151 221 24 8 54 -8 112 -62 36 -34 54 -44 74
-41 35 4 59 44 49 82 -9 36 -81 113 -128 137 -46 24 -177 43 -241 35 -97 -11
-218 -103 -266 -202 -51 -106 -204 -223 -224 -171 -3 8 0 66 6 130 12 136 6
160 -49 183 -50 21 -90 12 -219 -46 -59 -27 -111 -47 -116 -44 -5 3 -13 24
-20 47 -13 51 -56 121 -102 165 -34 33 -35 33 -69 19 -39 -17 -88 -70 -88 -97
0 -17 -4 -17 -60 6 -32 13 -101 31 -152 40 -51 9 -94 17 -96 19 -4 3 289 744
403 1020 85 205 92 233 70 275 -15 29 -65 60 -97 60 -7 0 -33 -10 -58 -22z
m-290 -833 c0 -3 -5 -13 -10 -23 -6 -9 -49 -122 -95 -251 -47 -129 -88 -238
-92 -242 -5 -4 -44 -21 -88 -39 -44 -17 -122 -54 -173 -81 -52 -27 -92 -46
-90 -41 7 18 533 682 540 682 5 0 8 -2 8 -5z"/>
<path d="M5890 4263 c-77 -39 -214 -199 -656 -768 -312 -401 -673 -876 -821
-1080 -72 -99 -153 -208 -181 -243 -47 -58 -50 -65 -40 -93 13 -37 68 -119 90
-132 52 -33 215 157 1043 1213 152 195 284 362 293 370 13 13 14 13 9 -5 -3
-11 -122 -344 -265 -740 -143 -396 -263 -734 -266 -750 -10 -47 28 -99 76
-103 68 -6 116 15 175 76 107 111 175 221 578 927 273 479 373 648 519 878 48
76 84 142 81 146 -10 18 -46 -3 -83 -48 -39 -47 -174 -240 -367 -526 -59 -88
-166 -238 -238 -334 -170 -226 -328 -462 -457 -684 -57 -97 -105 -175 -107
-173 -10 10 434 1165 687 1788 39 97 72 191 72 208 2 66 -77 106 -142 73z"/>
<path d="M6481 3357 c-26 -13 -120 -162 -121 -190 0 -23 42 -42 64 -30 27 15
136 174 136 198 0 15 -8 25 -22 29 -30 8 -29 8 -57 -7z"/>
<path d="M7703 3320 c-37 -15 -56 -64 -46 -123 7 -47 12 -55 55 -84 26 -17 71
-39 100 -49 l52 -17 22 27 c64 73 46 150 -45 198 -30 15 -59 32 -65 37 -19 15
-50 20 -73 11z"/>
<path d="M7556 2936 c-62 -82 -117 -180 -140 -247 -19 -56 -34 -83 -63 -109
-43 -38 -298 -233 -314 -238 -28 -10 -14 35 34 109 60 93 137 240 137 263 0 8
-11 27 -24 42 -18 22 -35 29 -79 34 -65 7 -75 3 -139 -57 -39 -36 -54 -43 -87
-43 -22 0 -43 5 -46 10 -4 6 7 38 24 72 33 65 37 88 21 119 -8 14 -21 19 -55
19 -36 0 -51 -6 -81 -32 -60 -53 -78 -116 -49 -171 14 -27 13 -29 -52 -98
-132 -140 -285 -229 -394 -229 l-52 0 6 53 c9 86 29 121 99 172 114 82 138
106 168 165 31 60 38 116 20 150 -21 40 -122 51 -241 26 -125 -27 -195 -80
-250 -189 -63 -124 -111 -310 -95 -371 16 -63 79 -91 237 -103 91 -7 159 7
249 52 118 59 300 200 355 274 27 36 35 41 72 41 23 0 45 -4 48 -10 3 -5 -17
-41 -45 -79 -57 -79 -73 -118 -89 -220 -14 -87 -7 -103 54 -127 84 -31 197 2
288 85 34 31 252 197 292 223 6 4 10 -20 10 -70 1 -91 16 -141 58 -189 82 -93
199 -82 310 29 68 69 271 347 271 373 1 13 -5 20 -18 20 -13 0 -42 -31 -85
-91 -146 -203 -256 -313 -318 -317 -27 -2 -28 0 -26 40 1 26 35 122 91 260 49
120 92 229 95 242 7 29 -21 98 -49 122 -10 9 -43 19 -72 21 -50 5 -54 3 -76
-26z m-1116 -54 c0 -31 -37 -106 -65 -134 -34 -33 -95 -71 -103 -64 -2 2 16
44 40 93 28 56 53 92 68 100 29 15 60 17 60 5z m378 -69 c-16 -38 -28 -51 -28
-29 0 22 18 56 30 56 6 0 5 -12 -2 -27z"/>
<path d="M1873 1800 c-68 -6 -84 -13 -56 -28 44 -24 255 -39 643 -47 113 -3
266 -11 340 -20 175 -20 875 -38 1430 -37 468 1 1316 23 1785 47 416 21 800
33 1103 34 144 1 191 4 186 13 -8 13 -1241 5 -1879 -13 -749 -21 -1821 -11
-2470 21 -554 28 -963 40 -1082 30z"/>
<path d="M7453 1743 c9 -2 25 -2 35 0 9 3 1 5 -18 5 -19 0 -27 -2 -17 -5z"/>
<path d="M6235 1457 c-75 -119 -70 -107 -43 -107 25 0 34 11 121 142 l19 28
-29 0 c-24 0 -34 -10 -68 -63z"/>
<path d="M6815 1484 c-19 -19 -16 -43 6 -57 37 -23 69 29 37 61 -16 16 -23 15
-43 -4z"/>
<path d="M7117 1433 c-4 -3 -7 -35 -7 -70 l0 -63 -30 0 c-23 0 -30 -4 -30 -20
0 -16 7 -20 30 -20 l30 0 0 -159 c0 -189 6 -243 32 -270 30 -33 108 -26 108 8
0 25 -11 33 -26 20 -22 -18 -53 -1 -59 34 -3 18 -5 106 -3 197 l3 165 43 3
c33 3 42 7 42 22 0 15 -9 19 -42 22 l-43 3 -3 68 c-2 57 -6 67 -21 67 -10 0
-21 -3 -24 -7z"/>
<path d="M2122 1303 c-96 -47 -131 -288 -61 -424 39 -77 129 -103 187 -54 17
14 32 25 34 25 8 0 -3 -113 -14 -147 -12 -40 -52 -73 -89 -73 -31 0 -85 40
-94 70 -5 16 -10 18 -26 10 -27 -15 -24 -35 14 -76 55 -60 154 -65 206 -10 44
47 51 99 51 398 l0 278 -25 0 c-18 0 -23 -4 -19 -15 8 -21 1 -19 -42 10 -43
29 -76 31 -122 8z m112 -58 c69 -75 66 -316 -4 -380 -32 -29 -79 -23 -111 13
-68 76 -63 293 9 375 23 26 78 22 106 -8z"/>
<path d="M3537 1296 c-44 -30 -47 -31 -47 -11 0 8 -9 15 -20 15 -20 0 -20 -7
-20 -360 0 -353 0 -360 20 -360 19 0 20 7 20 135 0 74 3 135 6 135 3 0 19 -11
36 -25 58 -49 150 -22 191 57 46 91 45 254 -3 353 -39 80 -117 106 -183 61z
m104 -36 c53 -29 83 -178 59 -295 -13 -65 -61 -125 -98 -125 -31 0 -69 37 -88
87 -21 54 -24 186 -6 249 22 77 78 113 133 84z"/>
<path d="M4040 1302 c-99 -55 -130 -300 -54 -429 63 -109 186 -96 242 25 22
49 26 71 26 152 1 117 -14 171 -62 222 -46 49 -98 59 -152 30z m112 -49 c50
-57 71 -179 48 -286 -33 -161 -167 -161 -200 0 -15 72 -8 189 15 234 28 55 45
69 85 69 23 0 43 -7 52 -17z"/>
<path d="M4834 1306 c-62 -28 -95 -100 -102 -222 -6 -112 14 -189 62 -241 62
-68 173 -52 213 33 15 31 15 36 3 44 -21 14 -23 13 -45 -23 -65 -103 -171 -45
-183 101 l-4 52 126 0 126 0 0 58 c0 78 -16 128 -53 169 -37 40 -93 52 -143
29z m96 -46 c19 -10 44 -70 54 -127 l6 -33 -105 0 c-117 0 -115 -1 -95 72 16
55 56 98 92 98 16 0 38 -4 48 -10z"/>
<path d="M5295 1310 c-46 -18 -69 -58 -73 -123 -5 -73 14 -104 81 -138 71 -36
87 -56 87 -110 0 -95 -74 -126 -135 -56 -27 31 -34 35 -49 24 -16 -12 -15 -15
6 -47 28 -41 61 -60 106 -60 79 0 129 66 120 160 -6 60 -29 88 -105 129 -61
33 -80 69 -64 122 20 66 83 80 123 29 21 -27 26 -29 42 -17 18 13 18 14 0 42
-29 44 -92 65 -139 45z"/>
<path d="M5756 1305 c-16 -9 -35 -23 -42 -33 -12 -16 -13 -15 -14 6 0 17 -6
22 -25 22 l-25 0 2 -357 3 -358 23 -3 c22 -3 22 -3 22 132 l0 135 36 -24 c59
-40 127 -30 172 25 37 45 46 85 46 205 1 109 -1 125 -24 170 -41 83 -109 114
-174 80z m107 -65 c40 -47 50 -91 45 -204 -2 -79 -8 -109 -24 -136 -45 -77
-110 -76 -155 3 -31 56 -39 189 -15 270 28 95 99 127 149 67z"/>
<path d="M7490 1309 c-14 -5 -37 -22 -52 -36 -26 -25 -27 -28 -12 -44 16 -18
18 -17 45 12 23 25 35 30 65 27 48 -4 75 -40 82 -107 l5 -51 -54 0 c-107 0
-169 -59 -169 -160 0 -124 105 -189 193 -120 32 25 37 25 37 0 0 -14 7 -20 21
-20 21 0 21 3 17 203 -4 218 -10 248 -62 282 -31 21 -85 27 -116 14z m130
-280 c0 -137 -79 -221 -147 -157 -18 17 -23 32 -23 73 0 82 43 121 138 124 31
1 32 0 32 -40z"/>
<path d="M2661 1284 c-30 -25 -31 -25 -31 -5 0 16 -6 21 -25 21 l-25 0 2 -242
c3 -240 3 -243 24 -246 22 -3 22 0 26 170 3 150 6 179 25 220 22 49 51 72 77
62 12 -5 16 0 16 20 0 22 -4 26 -29 26 -17 0 -42 -11 -60 -26z"/>
<path d="M6551 1284 c-30 -25 -31 -25 -31 -5 0 16 -6 21 -26 21 -22 0 -25 -3
-20 -22 3 -13 6 -123 6 -246 l0 -223 23 3 c22 3 22 6 27 183 4 146 9 186 23
212 20 37 61 68 77 58 6 -4 10 4 10 19 0 22 -5 26 -29 26 -17 0 -42 -11 -60
-26z"/>
<path d="M2920 1105 c0 -218 10 -264 61 -290 53 -28 136 -10 154 32 7 16 9 15
14 -7 4 -16 15 -26 29 -28 l22 -3 0 245 0 246 -25 0 -25 0 0 -153 c0 -162 -12
-230 -47 -269 -25 -28 -59 -39 -86 -29 -43 17 -52 60 -52 263 l0 188 -22 0
-23 0 0 -195z"/>
<path d="M6180 1054 l0 -245 23 3 22 3 3 243 2 242 -25 0 -25 0 0 -246z"/>
<path d="M6812 1058 l3 -243 23 -3 22 -3 0 245 0 246 -25 0 -25 0 2 -242z"/>
</g>
</svg>
